<?xml version="1.0" standalone="no"?>
<!DOCTYPE svg PUBLIC "-//W3C//DTD SVG 20010904//EN"
 "http://www.w3.org/TR/2001/REC-SVG-20010904/DTD/svg10.dtd">
<svg version="1.0" xmlns="http://www.w3.org/2000/svg"
 width="512.000000pt" height="512.000000pt" viewBox="0 0 512.000000 512.000000"
 preserveAspectRatio="xMidYMid meet">

<g transform="translate(0.000000,512.000000) scale(0.100000,-0.100000)"
fill="#000000" stroke="none">
<path d="M2235 5106 c-144 -28 -255 -92 -346 -198 -66 -77 -70 -80 -141 -119
-79 -43 -152 -119 -191 -198 -31 -63 -32 -70 -32 -191 0 -157 12 -195 146
-458 54 -106 104 -210 110 -232 7 -22 16 -40 20 -40 11 0 53 57 78 107 29 58
28 141 -4 240 -32 100 -31 118 4 154 34 33 83 39 131 14 43 -22 60 -53 60
-108 0 -27 5 -57 10 -68 12 -22 62 -26 79 -6 6 8 15 58 21 113 14 122 45 282
67 335 29 74 65 80 317 53 237 -24 356 -5 513 82 79 44 93 58 93 95 0 24 -8
34 -46 57 -104 62 -163 105 -243 176 -47 42 -114 91 -151 110 -145 77 -349
110 -495 82z"/>
<path d="M4068 3820 c-156 -26 -311 -111 -420 -229 -145 -156 -216 -373 -188
-577 49 -373 357 -644 730 -644 193 0 349 62 489 196 216 206 286 478 196 761
-34 109 -87 195 -175 284 -168 170 -402 248 -632 209z m288 -201 c154 -48 299
-191 350 -345 27 -83 27 -265 -1 -349 -22 -69 -102 -194 -146 -228 -27 -21
-37 -23 -75 -16 -111 21 -163 86 -164 207 0 28 -1 52 -3 52 -1 0 -20 -9 -42
-20 -48 -24 -124 -26 -168 -4 -131 66 -161 216 -64 321 22 24 33 43 26 43 -33
0 -91 23 -119 47 -45 38 -61 76 -64 158 l-3 74 61 30 c55 27 106 43 176 55 45
8 174 -6 236 -25z"/>
<path d="M1489 3362 c-312 -322 -490 -726 -490 -1112 -1 -154 8 -221 56 -410
99 -398 150 -780 162 -1214 l6 -228 51 -33 c140 -89 317 -172 502 -235 122
-41 333 -94 342 -86 9 10 21 98 21 165 1 35 -6 110 -15 168 -27 188 -80 342
-237 693 -55 124 -113 258 -128 298 -57 146 -104 368 -116 546 l-6 101 69 -65
c43 -41 102 -82 154 -109 107 -56 166 -109 175 -159 13 -71 95 -308 175 -507
228 -563 239 -598 247 -800 5 -121 -4 -210 -33 -347 l-6 -28 75 0 75 0 6 38
c3 20 26 172 51 337 25 165 62 394 81 510 19 116 35 218 37 229 1 14 -12 23
-58 40 -97 36 -208 95 -295 159 l-81 59 76 33 c128 56 242 133 340 230 145
144 247 293 322 469 l37 89 -39 33 c-35 30 -81 60 -283 189 -43 27 -50 38 -88
130 -52 130 -64 151 -112 205 -21 25 -48 63 -60 86 -33 66 -132 149 -235 198
-51 25 -190 77 -309 116 -271 89 -332 125 -390 227 l-24 42 -55 -57z"/>
</g>
</svg>
