<?xml version="1.0" standalone="no"?>
<!DOCTYPE svg PUBLIC "-//W3C//DTD SVG 20010904//EN"
 "http://www.w3.org/TR/2001/REC-SVG-20010904/DTD/svg10.dtd">
<svg version="1.0" xmlns="http://www.w3.org/2000/svg"
 width="512.000000pt" height="512.000000pt" viewBox="0 0 512.000000 512.000000"
 preserveAspectRatio="xMidYMid meet">

<g transform="translate(0.000000,512.000000) scale(0.100000,-0.100000)"
fill="#000000" stroke="none">
<path d="M2260 5106 c-676 -98 -1203 -594 -1341 -1263 -21 -97 -23 -144 -27
-465 l-4 -358 245 0 245 0 4 348 c4 324 6 353 27 432 152 559 678 906 1237
815 441 -71 775 -386 895 -845 8 -28 14 -177 18 -395 l6 -350 243 -3 244 -2
-5 372 c-5 410 -9 446 -77 650 -179 534 -642 940 -1197 1048 -139 28 -381 35
-513 16z"/>
<path d="M459 2697 c-24 -13 -57 -43 -74 -66 l-30 -43 0 -1221 c0 -1220 0
-1222 21 -1262 11 -22 40 -53 63 -70 l43 -30 2051 -3 c1586 -2 2062 0 2096 9
58 16 114 72 130 130 9 34 11 325 9 1245 l-3 1200 -27 41 c-15 22 -44 51 -65
64 l-38 24 -2066 3 -2066 2 -44 -23z m2235 -382 c195 -51 356 -216 402 -412
32 -135 2 -301 -75 -422 -60 -93 -187 -191 -293 -225 -16 -5 -18 -19 -18 -98
0 -147 -42 -203 -150 -203 -68 0 -104 21 -133 76 -27 51 -20 264 10 331 35 76
96 134 188 177 135 64 179 125 180 246 0 59 -4 78 -28 118 -109 186 -380 160
-452 -42 -8 -24 -15 -59 -15 -78 0 -52 -37 -110 -85 -133 -52 -25 -78 -25
-130 0 -104 50 -113 191 -25 376 65 136 202 248 352 288 71 19 200 20 272 1z
m-69 -1635 c143 -69 94 -294 -64 -294 -118 0 -189 129 -129 235 23 41 84 79
127 79 14 0 43 -9 66 -20z"/>
</g>
</svg>
